<svg width="14" height="14" viewBox="0 0 14 14" fill="none" xmlns="http://www.w3.org/2000/svg">
<path d="M8.51339 6.99915L13.0835 2.42733C13.2845 2.22666 13.3974 1.95443 13.3975 1.67054C13.3976 1.38664 13.2848 1.11433 13.0841 0.913519C12.8833 0.712704 12.6109 0.599831 12.3268 0.599732C12.0428 0.599632 11.7703 0.712313 11.5694 0.912986L6.99926 5.48267L2.42806 0.915118C2.22741 0.714585 1.95528 0.601927 1.67152 0.601927C1.38776 0.601927 1.11563 0.714585 0.914985 0.915118C0.71434 1.11565 0.601617 1.38763 0.601617 1.67122C0.601617 1.95482 0.71434 2.2268 0.914985 2.42733L5.48512 6.99701L0.914985 11.5667C0.713633 11.7672 0.600233 12.0395 0.599733 12.3236C0.599233 12.6077 0.711673 12.8803 0.912319 13.0816C1.11296 13.2828 1.38538 13.3961 1.66964 13.3966C1.95389 13.3971 2.2267 13.2848 2.42806 13.0842L6.99819 8.51456L11.5694 13.0842C11.6689 13.1836 11.787 13.2624 11.9169 13.3162C12.0469 13.3699 12.1862 13.3975 12.3268 13.3975C12.4675 13.3974 12.6067 13.3697 12.7367 13.3159C12.8666 13.262 12.9846 13.1831 13.0841 13.0837C13.1835 12.9843 13.2623 12.8662 13.3161 12.7364C13.3699 12.6065 13.3975 12.4673 13.3975 12.3267C13.3974 12.1861 13.3697 12.0469 13.3158 11.9171C13.262 11.7872 13.183 11.6693 13.0835 11.5699L8.51339 6.99915Z" fill="#595959"/>
</svg>
