<svg width="20" height="20" viewBox="0 0 20 20" fill="none" xmlns="http://www.w3.org/2000/svg">
<path d="M16.3862 8.47625H15.4775V5.75C15.4775 4.22501 14.8717 2.76247 13.7934 1.68414C12.715 0.605802 11.2525 0 9.7275 0C8.20251 0 6.73997 0.605802 5.66164 1.68414C4.5833 2.76247 3.9775 4.22501 3.9775 5.75V8.475H3.06625C2.82763 8.475 2.59135 8.52202 2.37091 8.61337C2.15047 8.70473 1.9502 8.83862 1.78153 9.00741C1.61285 9.1762 1.4791 9.37656 1.3879 9.59707C1.29669 9.81757 1.24984 10.0539 1.25 10.2925V17.5575C1.24984 17.7961 1.29669 18.0324 1.3879 18.2529C1.4791 18.4734 1.61285 18.6738 1.78153 18.8426C1.9502 19.0114 2.15047 19.1453 2.37091 19.2366C2.59135 19.328 2.82763 19.375 3.06625 19.375H16.3862C16.8679 19.375 17.3299 19.1836 17.6705 18.843C18.0111 18.5024 18.2025 18.0404 18.2025 17.5588V10.2925C18.2025 9.8108 18.0111 9.34883 17.6705 9.00822C17.3299 8.6676 16.8679 8.47625 16.3862 8.47625ZM12.4512 8.47625H7V5.75C6.99223 5.38732 7.05696 5.02674 7.19038 4.6894C7.3238 4.35207 7.52323 4.04476 7.77699 3.78552C8.03074 3.52627 8.3337 3.3203 8.6681 3.17969C9.0025 3.03907 9.36161 2.96664 9.72437 2.96664C10.0871 2.96664 10.4463 3.03907 10.7807 3.17969C11.1151 3.3203 11.418 3.52627 11.6718 3.78552C11.9255 4.04476 12.1249 4.35207 12.2584 4.6894C12.3918 5.02674 12.4565 5.38732 12.4487 5.75L12.4512 8.47625Z" fill="#BFBFBF"/>
</svg>
